<mxfile host="app.diagrams.net" agent="Mozilla/5.0 (Windows NT 10.0; Win64; x64) AppleWebKit/537.36 (KHTML, like Gecko) Chrome/132.0.0.0 Safari/537.36 OPR/117.0.0.0" version="26.1.1">
  <diagram name="Strona-1" id="b8fwXPV-Y6n9FmdTsVHD">
    <mxGraphModel dx="1380" dy="746" grid="1" gridSize="10" guides="1" tooltips="1" connect="1" arrows="1" fold="1" page="1" pageScale="1" pageWidth="583" pageHeight="630" math="0" shadow="0">
      <root>
        <mxCell id="0" />
        <mxCell id="1" parent="0" />
        <mxCell id="EwY9M5CipBJoRcCfjI_r-1" value="NOISE" style="text;html=1;align=center;verticalAlign=middle;whiteSpace=wrap;rounded=0;fontSize=16;fontStyle=1" parent="1" vertex="1">
          <mxGeometry x="44" y="60" width="60" height="30" as="geometry" />
        </mxCell>
        <mxCell id="EwY9M5CipBJoRcCfjI_r-4" value="" style="edgeStyle=segmentEdgeStyle;endArrow=classic;html=1;curved=0;rounded=0;endSize=8;startSize=8;exitX=1;exitY=0.5;exitDx=0;exitDy=0;" parent="1" source="EwY9M5CipBJoRcCfjI_r-1" edge="1">
          <mxGeometry width="50" height="50" relative="1" as="geometry">
            <mxPoint x="124" as="sourcePoint" />
            <mxPoint x="214" y="120" as="targetPoint" />
            <Array as="points">
              <mxPoint x="214" y="75" />
            </Array>
          </mxGeometry>
        </mxCell>
        <mxCell id="EwY9M5CipBJoRcCfjI_r-5" value="&lt;font style=&quot;font-size: 14px;&quot;&gt;&lt;b&gt;GeneratorRNA&lt;/b&gt;&lt;/font&gt;" style="rounded=1;whiteSpace=wrap;html=1;" parent="1" vertex="1">
          <mxGeometry x="154" y="120" width="120" height="60" as="geometry" />
        </mxCell>
        <mxCell id="EwY9M5CipBJoRcCfjI_r-7" value="&lt;font style=&quot;font-size: 14px;&quot;&gt;&lt;b&gt;Fake RNA Batch&lt;/b&gt;&lt;/font&gt;" style="strokeWidth=2;html=1;shape=mxgraph.flowchart.multi-document;whiteSpace=wrap;" parent="1" vertex="1">
          <mxGeometry x="129" y="220" width="170" height="60" as="geometry" />
        </mxCell>
        <mxCell id="EwY9M5CipBJoRcCfjI_r-8" value="" style="endArrow=classic;html=1;rounded=0;exitX=0.5;exitY=0.88;exitDx=0;exitDy=0;exitPerimeter=0;entryX=0.5;entryY=0;entryDx=0;entryDy=0;" parent="1" source="EwY9M5CipBJoRcCfjI_r-7" target="EwY9M5CipBJoRcCfjI_r-9" edge="1">
          <mxGeometry width="50" height="50" relative="1" as="geometry">
            <mxPoint x="364" y="330" as="sourcePoint" />
            <mxPoint x="212" y="440" as="targetPoint" />
          </mxGeometry>
        </mxCell>
        <mxCell id="EwY9M5CipBJoRcCfjI_r-9" value="&lt;font style=&quot;font-size: 14px;&quot;&gt;&lt;b style=&quot;&quot;&gt;DiscriminatorRNA&lt;/b&gt;&lt;/font&gt;" style="rounded=1;whiteSpace=wrap;html=1;" parent="1" vertex="1">
          <mxGeometry x="144" y="380" width="140" height="60" as="geometry" />
        </mxCell>
        <mxCell id="EwY9M5CipBJoRcCfjI_r-11" value="&lt;font style=&quot;font-size: 14px;&quot;&gt;&lt;b style=&quot;&quot;&gt;Database with&lt;/b&gt;&lt;/font&gt;&lt;div&gt;&lt;font style=&quot;font-size: 14px;&quot;&gt;&lt;b style=&quot;&quot;&gt;&amp;nbsp;real RNA&lt;/b&gt;&lt;/font&gt;&lt;/div&gt;" style="shape=cylinder3;whiteSpace=wrap;html=1;boundedLbl=1;backgroundOutline=1;size=15;" parent="1" vertex="1">
          <mxGeometry x="404" y="60" width="100" height="120" as="geometry" />
        </mxCell>
        <mxCell id="EwY9M5CipBJoRcCfjI_r-12" value="&lt;font style=&quot;font-size: 14px;&quot;&gt;&lt;b style=&quot;&quot;&gt;Real RNA Batch&lt;/b&gt;&lt;/font&gt;" style="strokeWidth=2;html=1;shape=mxgraph.flowchart.multi-document;whiteSpace=wrap;" parent="1" vertex="1">
          <mxGeometry x="369" y="220" width="170" height="60" as="geometry" />
        </mxCell>
        <mxCell id="EwY9M5CipBJoRcCfjI_r-13" value="" style="endArrow=classic;html=1;rounded=0;exitX=0.5;exitY=1;exitDx=0;exitDy=0;exitPerimeter=0;entryX=0.5;entryY=0;entryDx=0;entryDy=0;entryPerimeter=0;" parent="1" source="EwY9M5CipBJoRcCfjI_r-11" target="EwY9M5CipBJoRcCfjI_r-12" edge="1">
          <mxGeometry width="50" height="50" relative="1" as="geometry">
            <mxPoint x="364" y="330" as="sourcePoint" />
            <mxPoint x="414" y="280" as="targetPoint" />
          </mxGeometry>
        </mxCell>
        <mxCell id="EwY9M5CipBJoRcCfjI_r-15" value="Shuffle" style="text;html=1;align=center;verticalAlign=middle;whiteSpace=wrap;rounded=0;" parent="1" vertex="1">
          <mxGeometry x="214" y="300" width="60" height="30" as="geometry" />
        </mxCell>
        <mxCell id="EwY9M5CipBJoRcCfjI_r-17" value="" style="endArrow=classic;html=1;rounded=0;exitX=0.5;exitY=1;exitDx=0;exitDy=0;entryX=0.5;entryY=0;entryDx=0;entryDy=0;entryPerimeter=0;" parent="1" source="EwY9M5CipBJoRcCfjI_r-5" target="EwY9M5CipBJoRcCfjI_r-7" edge="1">
          <mxGeometry width="50" height="50" relative="1" as="geometry">
            <mxPoint x="364" y="320" as="sourcePoint" />
            <mxPoint x="414" y="270" as="targetPoint" />
          </mxGeometry>
        </mxCell>
        <mxCell id="EwY9M5CipBJoRcCfjI_r-19" value="" style="edgeStyle=segmentEdgeStyle;endArrow=classic;html=1;curved=0;rounded=0;endSize=8;startSize=8;exitX=0.5;exitY=0.88;exitDx=0;exitDy=0;exitPerimeter=0;" parent="1" source="EwY9M5CipBJoRcCfjI_r-12" edge="1">
          <mxGeometry width="50" height="50" relative="1" as="geometry">
            <mxPoint x="454" y="290" as="sourcePoint" />
            <mxPoint x="214" y="330" as="targetPoint" />
            <Array as="points">
              <mxPoint x="454" y="330" />
            </Array>
          </mxGeometry>
        </mxCell>
        <mxCell id="EwY9M5CipBJoRcCfjI_r-20" value="" style="endArrow=classic;html=1;rounded=0;exitX=1;exitY=0.5;exitDx=0;exitDy=0;" parent="1" source="EwY9M5CipBJoRcCfjI_r-9" edge="1">
          <mxGeometry width="50" height="50" relative="1" as="geometry">
            <mxPoint x="364" y="320" as="sourcePoint" />
            <mxPoint x="344" y="380" as="targetPoint" />
          </mxGeometry>
        </mxCell>
        <mxCell id="EwY9M5CipBJoRcCfjI_r-21" value="" style="endArrow=classic;html=1;rounded=0;exitX=1;exitY=0.5;exitDx=0;exitDy=0;" parent="1" source="EwY9M5CipBJoRcCfjI_r-9" edge="1">
          <mxGeometry width="50" height="50" relative="1" as="geometry">
            <mxPoint x="364" y="320" as="sourcePoint" />
            <mxPoint x="344" y="430" as="targetPoint" />
          </mxGeometry>
        </mxCell>
        <mxCell id="EwY9M5CipBJoRcCfjI_r-22" value="FAKE" style="text;html=1;align=center;verticalAlign=middle;whiteSpace=wrap;rounded=0;" parent="1" vertex="1">
          <mxGeometry x="334" y="360" width="60" height="30" as="geometry" />
        </mxCell>
        <mxCell id="EwY9M5CipBJoRcCfjI_r-23" value="REAL" style="text;html=1;align=center;verticalAlign=middle;whiteSpace=wrap;rounded=0;" parent="1" vertex="1">
          <mxGeometry x="334" y="420" width="60" height="30" as="geometry" />
        </mxCell>
        <mxCell id="EwY9M5CipBJoRcCfjI_r-24" value="&lt;font style=&quot;font-size: 14px;&quot;&gt;&lt;b&gt;Adversial Loss&lt;/b&gt;&lt;/font&gt;" style="rounded=0;whiteSpace=wrap;html=1;" parent="1" vertex="1">
          <mxGeometry x="154" y="475" width="120" height="60" as="geometry" />
        </mxCell>
        <mxCell id="EwY9M5CipBJoRcCfjI_r-25" value="" style="endArrow=classic;html=1;rounded=0;entryX=0.167;entryY=0.017;entryDx=0;entryDy=0;entryPerimeter=0;" parent="1" target="EwY9M5CipBJoRcCfjI_r-24" edge="1">
          <mxGeometry width="50" height="50" relative="1" as="geometry">
            <mxPoint x="174" y="442" as="sourcePoint" />
            <mxPoint x="414" y="270" as="targetPoint" />
          </mxGeometry>
        </mxCell>
        <mxCell id="EwY9M5CipBJoRcCfjI_r-26" value="" style="edgeStyle=segmentEdgeStyle;endArrow=classic;html=1;curved=0;rounded=0;endSize=8;startSize=8;" parent="1" edge="1">
          <mxGeometry width="50" height="50" relative="1" as="geometry">
            <mxPoint x="154" y="505" as="sourcePoint" />
            <mxPoint x="154" y="150" as="targetPoint" />
            <Array as="points">
              <mxPoint x="114" y="505" />
              <mxPoint x="114" y="150" />
            </Array>
          </mxGeometry>
        </mxCell>
        <mxCell id="EwY9M5CipBJoRcCfjI_r-27" value="" style="endArrow=classic;html=1;rounded=0;exitX=0.833;exitY=0.006;exitDx=0;exitDy=0;exitPerimeter=0;entryX=0.785;entryY=1.012;entryDx=0;entryDy=0;entryPerimeter=0;" parent="1" source="EwY9M5CipBJoRcCfjI_r-24" target="EwY9M5CipBJoRcCfjI_r-9" edge="1">
          <mxGeometry width="50" height="50" relative="1" as="geometry">
            <mxPoint x="364" y="320" as="sourcePoint" />
            <mxPoint x="414" y="270" as="targetPoint" />
          </mxGeometry>
        </mxCell>
      </root>
    </mxGraphModel>
  </diagram>
</mxfile>
